<svg width="387" height="42" viewBox="0 0 387 42" fill="none" xmlns="http://www.w3.org/2000/svg">
<g filter="url(#filter0_d_521_874)">
<path d="M156.426 20.7197L157.235 23.959L158.105 20.7197L162.025 9.28027H168.266L159.146 32.4795C158.586 33.9462 157.999 35.1735 157.386 36.1602C156.799 37.1733 156.172 37.973 155.506 38.5596C154.866 39.1729 154.132 39.6132 153.306 39.8799C152.506 40.1465 151.599 40.2802 150.586 40.2803C149.973 40.2803 149.385 40.2134 148.825 40.0801C148.265 39.9468 147.853 39.813 147.586 39.6797V35.04H148.825C149.385 35.04 149.879 34.9865 150.306 34.8799C150.732 34.7999 151.133 34.627 151.506 34.3604C151.906 34.0937 152.279 33.6801 152.626 33.1201C152.973 32.5601 153.319 31.8266 153.666 30.9199L154.105 29.8398L145.786 9.28027H152.306L156.426 20.7197Z" fill="white"/>
<path d="M10.8799 2.95996C12.7732 2.95996 14.5335 3.27992 16.1602 3.91992C17.7868 4.53326 19.1336 5.49317 20.2002 6.7998C21.2935 8.10647 21.9736 9.81326 22.2402 11.9199H15.4004C15.1337 10.5599 14.5998 9.55992 13.7998 8.91992C12.9998 8.28 11.9462 7.95996 10.6396 7.95996C9.51987 7.96001 8.62655 8.19979 7.95996 8.67969C7.32006 9.15962 7.00009 9.79977 7 10.5996C7 11.3196 7.22635 11.8936 7.67969 12.3203C8.13302 12.747 8.73381 13.0937 9.48047 13.3604C10.2537 13.6269 11.1069 13.8534 12.04 14.04C13 14.2 13.9867 14.3863 15 14.5996C16.0133 14.8129 16.9866 15.0938 17.9199 15.4404C18.8797 15.787 19.7463 16.2533 20.5195 16.8398C21.2929 17.4265 21.8936 18.1868 22.3203 19.1201C22.7735 20.0533 23 21.2132 23 22.5996C23 24.4663 22.5196 26.0671 21.5596 27.4004C20.6263 28.7068 19.3328 29.7071 17.6797 30.4004C16.0265 31.0936 14.1332 31.4404 12 31.4404C9.86682 31.4404 7.94681 31.107 6.24023 30.4404C4.56036 29.7738 3.17337 28.7602 2.08008 27.4004C1.01346 26.0405 0.320021 24.3335 0 22.2803H6.75977C7.02645 23.6134 7.61298 24.6404 8.51953 25.3604C9.4262 26.0804 10.6 26.4404 12.04 26.4404C13.5067 26.4404 14.6003 26.173 15.3203 25.6396C16.0666 25.0798 16.4403 24.3334 16.4404 23.4004C16.4404 22.6537 16.2131 22.0396 15.7598 21.5596C15.3065 21.0797 14.693 20.707 13.9199 20.4404C13.1733 20.1471 12.3202 19.9064 11.3604 19.7197C10.4271 19.5064 9.45361 19.28 8.44043 19.04C7.42726 18.8001 6.44032 18.5067 5.48047 18.1602C4.54714 17.8135 3.69326 17.3598 2.91992 16.7998C2.14665 16.2132 1.53339 15.4796 1.08008 14.5996C0.626854 13.693 0.400416 12.56 0.400391 11.2002C0.400391 9.68028 0.813077 8.29332 1.63965 7.04004C2.46632 5.78671 3.65353 4.80008 5.2002 4.08008C6.77348 3.33346 8.66665 2.95997 10.8799 2.95996Z" fill="white"/>
<path fill-rule="evenodd" clip-rule="evenodd" d="M34.9961 8.59961C37.1828 8.59961 39.0634 9.06667 40.6367 10C42.2366 10.9066 43.4631 12.2134 44.3164 13.9199C45.1697 15.6266 45.5967 17.6667 45.5967 20.04C45.5967 22.4667 45.1564 24.5336 44.2764 26.2402C43.423 27.9201 42.1966 29.2135 40.5967 30.1201C39.0233 31.0001 37.1561 31.4404 34.9961 31.4404C32.8363 31.4404 30.9563 30.9867 29.3564 30.0801C27.7832 29.1468 26.5701 27.8267 25.7168 26.1201C24.8635 24.4135 24.4365 22.3867 24.4365 20.04C24.4365 17.5867 24.8635 15.5198 25.7168 13.8398C26.5968 12.1333 27.8366 10.8399 29.4365 9.95996C31.0364 9.05336 32.8896 8.59967 34.9961 8.59961ZM34.9961 13.5596C33.6096 13.5597 32.5435 14.1204 31.7969 15.2402C31.0769 16.3336 30.7168 17.9334 30.7168 20.04C30.7168 22.12 31.0769 23.7199 31.7969 24.8398C32.5435 25.933 33.6097 26.4794 34.9961 26.4795C36.4094 26.4795 37.4763 25.9332 38.1963 24.8398C38.9429 23.7199 39.3164 22.12 39.3164 20.04C39.3164 17.9601 38.9429 16.3602 38.1963 15.2402C37.4763 14.1202 36.4094 13.5596 34.9961 13.5596Z" fill="white"/>
<path d="M133.189 2.95996C135.083 2.95996 136.843 3.27992 138.47 3.91992C140.096 4.53326 141.443 5.49317 142.51 6.7998C143.603 8.10647 144.283 9.81326 144.55 11.9199H137.71C137.443 10.5599 136.909 9.55992 136.109 8.91992C135.309 8.28 134.256 7.95996 132.949 7.95996C131.829 7.96001 130.936 8.19979 130.27 8.67969C129.63 9.15962 129.31 9.79977 129.31 10.5996C129.31 11.3196 129.536 11.8936 129.989 12.3203C130.443 12.747 131.043 13.0937 131.79 13.3604C132.563 13.6269 133.416 13.8534 134.35 14.04C135.31 14.2 136.296 14.3863 137.31 14.5996C138.323 14.8129 139.296 15.0938 140.229 15.4404C141.189 15.787 142.056 16.2533 142.829 16.8398C143.602 17.4265 144.203 18.1868 144.63 19.1201C145.083 20.0533 145.31 21.2132 145.31 22.5996C145.31 24.4663 144.829 26.0671 143.869 27.4004C142.936 28.7068 141.642 29.7071 139.989 30.4004C138.336 31.0936 136.443 31.4404 134.31 31.4404C132.176 31.4404 130.256 31.107 128.55 30.4404C126.87 29.7738 125.483 28.7602 124.39 27.4004C123.323 26.0405 122.63 24.3335 122.31 22.2803H129.069C129.336 23.6134 129.923 24.6404 130.829 25.3604C131.736 26.0804 132.91 26.4404 134.35 26.4404C135.816 26.4404 136.91 26.173 137.63 25.6396C138.376 25.0798 138.75 24.3334 138.75 23.4004C138.75 22.6537 138.523 22.0396 138.069 21.5596C137.616 21.0797 137.003 20.707 136.229 20.4404C135.483 20.1471 134.63 19.9064 133.67 19.7197C132.737 19.5064 131.763 19.28 130.75 19.04C129.737 18.8001 128.75 18.5067 127.79 18.1602C126.857 17.8135 126.003 17.3598 125.229 16.7998C124.456 16.2132 123.843 15.4796 123.39 14.5996C122.936 13.693 122.71 12.56 122.71 11.2002C122.71 9.68028 123.123 8.29332 123.949 7.04004C124.776 5.78671 125.963 4.80008 127.51 4.08008C129.083 3.33346 130.976 2.95997 133.189 2.95996Z" fill="white"/>
<path d="M177.291 8.59961C179.024 8.59961 180.572 8.88043 181.932 9.44043C183.318 9.97375 184.451 10.8135 185.331 11.96C186.238 13.1066 186.785 14.5871 186.972 16.4004H180.892C180.705 15.2804 180.291 14.48 179.651 14C179.011 13.5201 178.158 13.2803 177.092 13.2803C176.292 13.2803 175.651 13.4665 175.171 13.8398C174.691 14.1865 174.451 14.6537 174.451 15.2402C174.451 15.8266 174.691 16.2931 175.171 16.6396C175.651 16.9596 176.292 17.2137 177.092 17.4004C177.892 17.587 178.758 17.76 179.691 17.9199C180.651 18.0532 181.598 18.2395 182.531 18.4795C183.491 18.7194 184.358 19.0664 185.131 19.5195C185.931 19.9462 186.572 20.547 187.052 21.3203C187.532 22.0669 187.771 23.0538 187.771 24.2803C187.771 25.6668 187.358 26.9067 186.531 28C185.731 29.0933 184.611 29.9462 183.171 30.5596C181.758 31.1462 180.118 31.4404 178.251 31.4404C175.558 31.4404 173.291 30.8262 171.451 29.5996C169.611 28.3463 168.492 26.3863 168.092 23.7197H174.211C174.371 24.7064 174.825 25.4667 175.571 26C176.318 26.5333 177.265 26.7998 178.411 26.7998C179.478 26.7998 180.278 26.6002 180.812 26.2002C181.371 25.8002 181.651 25.2796 181.651 24.6396C181.651 24.0533 181.411 23.6002 180.932 23.2803C180.478 22.9603 179.852 22.7062 179.052 22.5195C178.278 22.3329 177.425 22.1734 176.491 22.04C175.585 21.8801 174.665 21.6804 173.731 21.4404C172.825 21.2004 171.984 20.8671 171.211 20.4404C170.438 19.9871 169.811 19.3729 169.331 18.5996C168.851 17.7997 168.611 16.786 168.611 15.5596C168.611 14.3598 168.931 13.2267 169.571 12.1602C170.211 11.0935 171.171 10.2396 172.451 9.59961C173.758 8.93299 175.371 8.59964 177.291 8.59961Z" fill="white"/>
<path fill-rule="evenodd" clip-rule="evenodd" d="M212.952 8.59961C215.085 8.59961 216.939 9.05329 218.513 9.95996C220.086 10.8666 221.299 12.1733 222.152 13.8799C223.006 15.5599 223.433 17.5733 223.433 19.9199V21.2803H208.644C208.77 22.791 209.139 23.9909 209.753 24.8799C210.553 25.9998 211.699 26.5595 213.192 26.5596C214.206 26.5596 215.046 26.3332 215.713 25.8799C216.379 25.4265 216.872 24.7063 217.192 23.7197H223.593C223.033 26.1997 221.819 28.1071 219.952 29.4404C218.086 30.7735 215.832 31.4404 213.192 31.4404C210.952 31.4404 209.019 30.9867 207.393 30.0801C205.793 29.1468 204.553 27.8267 203.673 26.1201C202.82 24.4135 202.393 22.3867 202.393 20.04C202.393 17.5867 202.82 15.5198 203.673 13.8398C204.553 12.1333 205.779 10.8399 207.353 9.95996C208.952 9.05336 210.819 8.59967 212.952 8.59961ZM212.952 13.4795C211.539 13.4796 210.459 14.0403 209.713 15.1602C209.26 15.84 208.945 16.7065 208.767 17.7598H217.102C216.924 16.7097 216.608 15.8432 216.152 15.1602C215.406 14.0402 214.339 13.4795 212.952 13.4795Z" fill="white"/>
<path d="M54.1533 22.3604C54.1534 23.2668 54.2604 24.0264 54.4736 24.6396C54.7136 25.2529 55.0729 25.72 55.5527 26.04C56.0327 26.3334 56.6335 26.4795 57.3535 26.4795C57.94 26.4794 58.4732 26.36 58.9531 26.1201C59.4331 25.8801 59.8333 25.5467 60.1533 25.1201C60.5 24.6668 60.7665 24.1462 60.9531 23.5596C61.1164 23.023 61.2081 22.4661 61.2285 21.8887L61.2334 21.6396V9.28027H67.3535V30.7998H61.2334V27.9482C60.6027 29.0153 59.8294 29.8331 58.9131 30.4004C57.8198 31.0936 56.5531 31.4394 55.1133 31.4395C53.78 31.4395 52.5669 31.1595 51.4736 30.5996C50.407 30.0396 49.5665 29.1867 48.9531 28.04C48.3398 26.8667 48.0332 25.3863 48.0332 23.5996V9.28027H54.1533V22.3604Z" fill="white"/>
<path fill-rule="evenodd" clip-rule="evenodd" d="M113.261 30.7998H107.141V28.5742C106.719 29.1776 106.24 29.6937 105.701 30.1201C104.555 31 103.221 31.4394 101.701 31.4395C99.8878 31.4395 98.3004 30.9867 96.9404 30.0801C95.5805 29.1468 94.5269 27.8267 93.7803 26.1201C93.0603 24.4135 92.7012 22.3866 92.7012 20.04C92.7012 16.3867 93.514 13.5729 95.1406 11.5996C96.7939 9.5997 98.9812 8.59961 101.701 8.59961C104.002 8.59974 105.814 9.54998 107.141 11.4473V2H113.261V30.7998ZM103.021 13.5596C101.714 13.5596 100.714 14.1203 100.021 15.2402C99.3273 16.3336 98.9805 17.9336 98.9805 20.04C98.9805 22.1199 99.3272 23.7199 100.021 24.8398C100.74 25.9331 101.741 26.4794 103.021 26.4795C104.381 26.4795 105.407 25.9332 106.101 24.8398C106.794 23.7465 107.141 22.1466 107.141 20.04C107.141 17.9602 106.78 16.3602 106.061 15.2402C105.367 14.1202 104.354 13.5596 103.021 13.5596Z" fill="white"/>
<path d="M196.971 9.28027H201.37V13.9199H196.971V23.04C196.971 24.0797 197.171 24.8795 197.57 25.4395C197.997 25.9995 198.864 26.2803 200.171 26.2803H201.33V30.8799C200.983 31.0132 200.49 31.1336 199.851 31.2402C199.211 31.3736 198.477 31.4395 197.65 31.4395C195.357 31.4394 193.65 30.7995 192.53 29.5195C191.41 28.2129 190.851 26.3063 190.851 23.7998V13.9199H188.211V9.28027H190.851V4.28027H196.971V9.28027Z" fill="white"/>
<path d="M83.0693 8.59961C84.4559 8.59961 85.6824 8.88049 86.749 9.44043C87.8424 10.0004 88.6962 10.8667 89.3096 12.04C89.9495 13.1867 90.2695 14.6538 90.2695 16.4404V30.7998H84.1494V17.6797C84.1494 16.7733 84.029 16.0136 83.7891 15.4004C83.5491 14.7872 83.1764 14.3334 82.6699 14.04C82.1899 13.72 81.5758 13.5596 80.8291 13.5596C80.2159 13.5596 79.656 13.68 79.1494 13.9199C78.6694 14.1599 78.2558 14.5066 77.9092 14.96C77.5626 15.3865 77.296 15.9064 77.1094 16.5195C76.946 17.0329 76.8544 17.5876 76.834 18.1826L76.8291 18.4404V30.7998H70.71V9.28027H76.8291V12.1309C77.4598 11.0641 78.2332 10.2468 79.1494 9.67969C80.296 8.95975 81.6028 8.59963 83.0693 8.59961Z" fill="white"/>
<path d="M250.229 8.59961C251.563 8.59964 252.749 8.88046 253.789 9.44043C254.856 10.0004 255.683 10.8667 256.27 12.04C256.883 13.1867 257.189 14.6538 257.189 16.4404V30.7998H251.069V17.6797C251.069 16.7733 250.962 16.0136 250.749 15.4004C250.562 14.7871 250.256 14.3334 249.829 14.04C249.402 13.7201 248.856 13.5596 248.189 13.5596C247.656 13.5596 247.176 13.6799 246.749 13.9199C246.322 14.1599 245.949 14.5067 245.629 14.96C245.309 15.3865 245.056 15.9064 244.869 16.5195C244.729 17.0329 244.65 17.5876 244.633 18.1826L244.629 18.4404V30.7998H238.549V17.6797C238.549 16.7734 238.443 16.0136 238.229 15.4004C238.016 14.7872 237.696 14.3334 237.27 14.04C236.843 13.72 236.296 13.5596 235.629 13.5596C235.096 13.5596 234.616 13.68 234.189 13.9199C233.763 14.1599 233.389 14.5067 233.069 14.96C232.749 15.3865 232.51 15.9064 232.35 16.5195C232.21 17.0329 232.131 17.5876 232.113 18.1826L232.109 18.4404V30.7998H225.989V9.28027H232.109V12.0342C232.704 11.0147 233.424 10.2295 234.27 9.67969C235.363 8.95983 236.603 8.59961 237.989 8.59961C239.269 8.59961 240.403 8.88043 241.39 9.44043C242.403 10.0004 243.189 10.8669 243.749 12.04C243.766 12.0734 243.781 12.1077 243.798 12.1416C244.456 11.0695 245.266 10.2488 246.229 9.67969C247.429 8.95981 248.763 8.59961 250.229 8.59961Z" fill="white"/>
</g>
<g filter="url(#filter1_d_521_874)">
<path d="M370.412 24.24C370.412 17.12 376.812 10.12 383.092 10.12C385.412 10.12 386.452 11.24 386.452 12.56C386.452 15.16 382.132 17.68 375.372 19.68C375.252 20.36 375.212 21.08 375.212 21.8C375.212 26.08 377.052 27.88 379.612 27.88C381.612 27.88 383.132 26.64 384.812 23.44H385.132C382.852 28.04 380.172 31.4 376.292 31.4C372.812 31.4 370.412 28.68 370.412 24.24ZM375.412 19.24C380.212 17.8 382.532 15.16 382.532 12.64C382.532 11.44 381.932 10.92 381.052 10.92C378.652 10.92 376.132 14.8 375.412 19.24Z" fill="white"/>
<path d="M358.936 16.16C359.616 13.88 359.136 13.32 358.536 13.32C357.656 13.32 356.736 14.52 355.536 16.12H355.176C357.176 13.4 359.616 10.12 362.016 10.12C363.736 10.12 364.976 11.84 363.616 16.48L360.856 25.88H361.216L362.696 22.48C366.976 12.6 368.696 10.12 370.576 10.12C371.496 10.12 372.216 10.96 372.216 12.52C372.216 13.2 372.096 13.88 371.936 14.32C367.776 14.32 366.056 15.96 363.136 22.68L359.576 30.92H354.616L358.936 16.16Z" fill="white"/>
<path d="M333.769 16.12C335.769 13.4 338.209 10.12 340.609 10.12C342.329 10.12 343.769 11.84 342.249 16.48L339.489 24.84C338.769 27.04 339.329 27.8 340.129 27.8C341.569 27.8 343.089 25.36 346.209 18.68L350.009 10.6H354.849L350.889 24.2C350.009 27.24 350.569 27.96 351.249 27.96C352.009 27.96 352.769 26.96 353.969 25.4H354.329C352.329 28.12 349.929 31.4 347.649 31.4C345.969 31.4 344.449 29.6 346.009 24.36L348.769 15.16H348.409L346.569 19.08C342.929 26.84 340.129 31.4 337.009 31.4C334.769 31.4 333.249 29.32 334.809 24.48L337.489 16.16C338.209 13.96 337.729 13.32 337.129 13.32C336.249 13.32 335.329 14.52 334.129 16.12H333.769Z" fill="white"/>
<path d="M323.048 23.6801L326.688 11.0801H324.488V10.6001H327.408C329.328 9.6801 331.648 7.8801 332.848 5.6001H333.048L331.608 10.6001H335.848V11.0801H331.488L327.808 23.9201C326.928 26.9601 327.768 27.9601 328.848 27.9601C329.768 27.9601 330.608 27.1601 331.928 25.4001H332.288C330.328 28.0801 327.768 31.4001 325.128 31.4001C323.008 31.4001 321.448 29.2801 323.048 23.6801Z" fill="white"/>
<path d="M313.046 24.36L319.046 3.32L316.846 2.64V2.44L324.806 0H324.846L317.886 24.2C317.006 27.24 317.566 27.96 318.286 27.96C319.046 27.96 319.806 26.96 320.966 25.4H321.326C319.326 28.12 316.966 31.4 314.686 31.4C312.966 31.4 311.566 29.6 313.046 24.36Z" fill="white"/>
<path d="M290.839 16.12C292.839 13.4 295.279 10.12 297.679 10.12C299.399 10.12 300.839 11.84 299.319 16.48L296.559 24.84C295.839 27.04 296.399 27.8 297.199 27.8C298.639 27.8 300.159 25.36 303.279 18.68L307.079 10.6H311.919L307.959 24.2C307.079 27.24 307.639 27.96 308.319 27.96C309.079 27.96 309.839 26.96 311.039 25.4H311.399C309.399 28.12 306.999 31.4 304.719 31.4C303.039 31.4 301.519 29.6 303.079 24.36L305.839 15.16H305.479L303.639 19.08C299.999 26.84 297.199 31.4 294.079 31.4C291.839 31.4 290.319 29.32 291.879 24.48L294.559 16.16C295.279 13.96 294.799 13.32 294.199 13.32C293.319 13.32 292.399 14.52 291.199 16.12H290.839Z" fill="white"/>
<path d="M266.189 20.64C266.189 10.48 275.349 1.96 284.829 1.96C287.309 1.96 289.189 2.48 290.109 2.72L290.869 0.119995H291.069V9.72H290.829C289.869 5.87999 287.509 2.44 284.189 2.44C276.709 2.44 272.069 12.44 272.069 21.4C272.069 27.88 275.029 30.92 278.709 30.92C282.749 30.92 286.549 25.4 289.069 21H289.349L286.029 30.12C284.869 30.48 281.509 31.4 277.749 31.4C270.669 31.4 266.189 27.64 266.189 20.64Z" fill="white"/>
</g>
<defs>
<filter id="filter0_d_521_874" x="0" y="2" width="257.189" height="39.2803" filterUnits="userSpaceOnUse" color-interpolation-filters="sRGB">
<feFlood flood-opacity="0" result="BackgroundImageFix"/>
<feColorMatrix in="SourceAlpha" type="matrix" values="0 0 0 0 0 0 0 0 0 0 0 0 0 0 0 0 0 0 127 0" result="hardAlpha"/>
<feOffset dy="1"/>
<feComposite in2="hardAlpha" operator="out"/>
<feColorMatrix type="matrix" values="0 0 0 0 0 0 0 0 0 0 0 0 0 0 0 0 0 0 1 0"/>
<feBlend mode="normal" in2="BackgroundImageFix" result="effect1_dropShadow_521_874"/>
<feBlend mode="normal" in="SourceGraphic" in2="effect1_dropShadow_521_874" result="shape"/>
</filter>
<filter id="filter1_d_521_874" x="266.189" y="0" width="120.262" height="32.4001" filterUnits="userSpaceOnUse" color-interpolation-filters="sRGB">
<feFlood flood-opacity="0" result="BackgroundImageFix"/>
<feColorMatrix in="SourceAlpha" type="matrix" values="0 0 0 0 0 0 0 0 0 0 0 0 0 0 0 0 0 0 127 0" result="hardAlpha"/>
<feOffset dy="1"/>
<feComposite in2="hardAlpha" operator="out"/>
<feColorMatrix type="matrix" values="0 0 0 0 0 0 0 0 0 0 0 0 0 0 0 0 0 0 1 0"/>
<feBlend mode="normal" in2="BackgroundImageFix" result="effect1_dropShadow_521_874"/>
<feBlend mode="normal" in="SourceGraphic" in2="effect1_dropShadow_521_874" result="shape"/>
</filter>
</defs>
</svg>
